 <svg width="250" height="69.155" viewBox="0 0 250 69.155">
      <path d="M237.847 1.157h8.97v46.875h-8.97l-0.289 -2.604 -0.501 0.339c-4.305 2.765 -9.618 3.583 -14.617 2.532 -3.758 -0.912 -6.762 -2.727 -9.477 -5.476l-0.622 -0.602C209.348 39.13 207.807 34.916 207.465 30.671l-0.046 -0.558c-0.231 -5.328 1.869 -10.049 5.272 -14.027 3.543 -3.797 8.165 -5.632 13.264 -6.023 4.418 -0.136 7.575 1.233 11.603 3.247zm-19.389 21.506C216.492 25.284 215.77 27.985 216.146 31.25c0.716 3.03 2.381 5.441 4.919 7.234 2.746 1.613 5.845 1.942 8.957 1.259 3.097 -1.141 5.213 -3.26 6.667 -6.178 1.155 -2.742 1.036 -5.499 0.02 -8.257 -1.297 -2.903 -3.332 -4.747 -6.246 -5.958 -4.448 -1.569 -8.957 -0.216 -12.005 3.313M1.736 1.157h8.97v12.153l4.051 -2.025c5.469 -1.727 10.859 -1.598 15.996 1.064 4.86 2.665 7.955 6.705 9.576 11.975 1.34 5.466 0.429 10.787 -2.423 15.607 -3.135 4.617 -7.529 7.46 -12.989 8.56C19.699 49.191 15.166 48.147 10.706 45.428v2.604H1.736zm11.646 21.367c-1.876 2.288 -2.602 4.863 -2.498 7.798 0.384 3.218 2.006 5.759 4.491 7.781C18.045 39.989 20.83 40.218 24.016 39.931c2.838 -0.622 5.063 -2.399 6.637 -4.792 1.453 -2.367 2.032 -4.899 1.573 -7.65 -0.689 -2.878 -2.106 -5.12 -4.449 -6.944 -5.024 -2.848 -10.369 -2.262 -14.395 1.98M150.174 13.6V10.417h8.681v37.616h-8.681l-0.289 -2.604 -0.891 0.476c-5.026 2.637 -10.26 3.703 -15.869 2.157 -5.187 -1.85 -9.436 -5.226 -11.85 -10.228 -2.253 -4.97 -2.308 -10.185 -0.596 -15.321C121.464 20.49 122.517 18.783 123.843 17.072l0.564 -0.737C130.764 8.729 142.315 8.36 150.174 13.6m-19.965 9.259c-1.774 2.876 -2.332 5.311 -2.025 8.681 0.87 3.302 2.909 5.745 5.787 7.523 2.574 1.356 5.371 1.391 8.124 0.599 2.867 -1.05 4.99 -2.821 6.434 -5.518 1.245 -2.736 1.433 -5.526 0.488 -8.391 -1.356 -2.99 -3.163 -4.85 -6.076 -6.366 -4.78 -1.652 -9.483 -0.383 -12.731 3.472m35.59 -12.442c7.523 0 7.523 0 9.658 1.81 0.53 0.631 0.53 0.631 0.917 1.203 1.114 1.536 2.436 2.817 3.792 4.139q0.738 0.734 1.476 1.469l1.501 1.489q1.497 1.486 2.992 2.974c0.223 0.221 0.447 0.443 0.678 0.67 0.95 0.946 1.878 1.893 2.745 2.917 1.732 1.953 3.62 3.764 5.466 5.61l0.289 -22.28h8.391v37.616c-7.523 0 -7.523 0 -9.766 -1.899 -0.544 -0.644 -0.544 -0.644 -0.919 -1.205 -0.87 -1.235 -1.85 -2.303 -2.897 -3.388a435.764 435.764 0 0 1 -1.013 -1.085c-1.606 -1.719 -3.215 -3.434 -4.824 -5.15l-3.251 -3.468q-1.427 -1.522 -2.853 -3.045l-0.602 -0.643 -1.147 -1.225 -0.52 -0.555 -0.458 -0.489A51.505 51.505 0 0 0 174.479 24.884l-0.289 23.148h-8.391zm-104.167 0h33.565c0 6.366 0 6.366 -1.284 8.156A112.847 112.847 0 0 1 92.303 19.965a47.454 47.454 0 0 0 -1.32 1.61A65.972 65.972 0 0 1 88.397 24.595a67.708 67.708 0 0 0 -2.604 3.038c-1.045 1.291 -2.137 2.525 -3.255 3.753 -0.901 1.013 -1.746 2.068 -2.598 3.122 -0.859 1.037 -1.759 2.033 -2.67 3.025 -0.608 0.681 -1.178 1.396 -1.749 2.109l19.965 0.289v8.102H61.632c0 -6.366 0 -6.366 1.139 -8.011A98.09 98.09 0 0 1 64.236 38.773a47.743 47.743 0 0 0 1.266 -1.555c1.065 -1.317 2.185 -2.564 3.338 -3.803 1.1 -1.189 2.122 -2.432 3.137 -3.694 0.905 -1.094 1.869 -2.13 2.83 -3.174 0.692 -0.771 1.348 -1.561 1.997 -2.368 1.106 -1.373 2.273 -2.674 3.479 -3.958C81.027 19.433 81.027 19.433 81.597 18.519h-19.965zM100.694 1.447h8.681l0.017 2.752q0.03 4.506 0.066 9.012 0.022 2.731 0.039 5.463 0.016 2.637 0.039 5.274 0.008 1.005 0.013 2.01c0.005 0.94 0.013 1.88 0.023 2.819l0.002 0.836c0.036 2.861 0.608 5.102 2.477 7.334 1.696 1.427 3.25 1.861 5.425 2.405v8.681c-4.942 0 -8.479 -1.443 -12.06 -4.799 -3.534 -3.677 -4.823 -7.95 -4.788 -12.945v-0.951c0 -1.027 0.005 -2.054 0.009 -3.081l0.002 -2.148q0.004 -2.815 0.014 -5.631c0.006 -1.918 0.009 -3.837 0.012 -5.755 0.006 -3.758 0.016 -7.517 0.028 -11.275M46.586 10.417h8.681v37.616h-8.681z" fill="#004EF2"/>
      <path d="M46.586 59.028h16.204v8.97h-16.204z" fill="#00EABB" />
  </svg>

